<svg width="163" height="45" viewBox="0 0 163 45" fill="none" xmlns="http://www.w3.org/2000/svg">
<path d="M23.1152 7.40625V33H17.8418L7.55859 15.8438V33H2.28516V7.40625H7.55859L17.8594 24.5801V7.40625H23.1152ZM36.1406 33.3516C34.6641 33.3516 33.3398 33.1172 32.168 32.6484C30.9961 32.168 30 31.5059 29.1797 30.6621C28.3711 29.8184 27.75 28.8398 27.3164 27.7266C26.8828 26.6016 26.666 25.4062 26.666 24.1406V23.4375C26.666 21.9961 26.8711 20.6777 27.2812 19.4824C27.6914 18.2871 28.2773 17.25 29.0391 16.3711C29.8125 15.4922 30.75 14.8184 31.8516 14.3496C32.9531 13.8691 34.1953 13.6289 35.5781 13.6289C36.9258 13.6289 38.1211 13.8516 39.1641 14.2969C40.207 14.7422 41.0801 15.375 41.7832 16.1953C42.498 17.0156 43.0371 18 43.4004 19.1484C43.7637 20.2852 43.9453 21.5508 43.9453 22.9453V25.0547H28.8281V21.6797H38.9707V21.293C38.9707 20.5898 38.8418 19.9629 38.584 19.4121C38.3379 18.8496 37.9629 18.4043 37.459 18.0762C36.9551 17.748 36.3105 17.584 35.5254 17.584C34.8574 17.584 34.2832 17.7305 33.8027 18.0234C33.3223 18.3164 32.9297 18.7266 32.625 19.2539C32.332 19.7812 32.1094 20.4023 31.957 21.1172C31.8164 21.8203 31.7461 22.5938 31.7461 23.4375V24.1406C31.7461 24.9023 31.8516 25.6055 32.0625 26.25C32.2852 26.8945 32.5957 27.4512 32.9941 27.9199C33.4043 28.3887 33.8965 28.752 34.4707 29.0098C35.0566 29.2676 35.7188 29.3965 36.457 29.3965C37.3711 29.3965 38.2207 29.2207 39.0059 28.8691C39.8027 28.5059 40.4883 27.9609 41.0625 27.2344L43.5234 29.9062C43.125 30.4805 42.5801 31.0312 41.8887 31.5586C41.209 32.0859 40.3887 32.5195 39.4277 32.8594C38.4668 33.1875 37.3711 33.3516 36.1406 33.3516ZM51.8906 5.98242V33H46.8281V5.98242H51.8906ZM63.8789 13.9805L55.6172 23.4023L51.1875 27.8848L49.3418 24.2285L52.8574 19.7637L57.7969 13.9805H63.8789ZM58.623 33L52.998 24.2109L56.4961 21.1523L64.459 33H58.623ZM74.4609 33.3516C72.9844 33.3516 71.6602 33.1172 70.4883 32.6484C69.3164 32.168 68.3203 31.5059 67.5 30.6621C66.6914 29.8184 66.0703 28.8398 65.6367 27.7266C65.2031 26.6016 64.9863 25.4062 64.9863 24.1406V23.4375C64.9863 21.9961 65.1914 20.6777 65.6016 19.4824C66.0117 18.2871 66.5977 17.25 67.3594 16.3711C68.1328 15.4922 69.0703 14.8184 70.1719 14.3496C71.2734 13.8691 72.5156 13.6289 73.8984 13.6289C75.2461 13.6289 76.4414 13.8516 77.4844 14.2969C78.5273 14.7422 79.4004 15.375 80.1035 16.1953C80.8184 17.0156 81.3574 18 81.7207 19.1484C82.084 20.2852 82.2656 21.5508 82.2656 22.9453V25.0547H67.1484V21.6797H77.291V21.293C77.291 20.5898 77.1621 19.9629 76.9043 19.4121C76.6582 18.8496 76.2832 18.4043 75.7793 18.0762C75.2754 17.748 74.6309 17.584 73.8457 17.584C73.1777 17.584 72.6035 17.7305 72.123 18.0234C71.6426 18.3164 71.25 18.7266 70.9453 19.2539C70.6523 19.7812 70.4297 20.4023 70.2773 21.1172C70.1367 21.8203 70.0664 22.5938 70.0664 23.4375V24.1406C70.0664 24.9023 70.1719 25.6055 70.3828 26.25C70.6055 26.8945 70.916 27.4512 71.3145 27.9199C71.7246 28.3887 72.2168 28.752 72.791 29.0098C73.377 29.2676 74.0391 29.3965 74.7773 29.3965C75.6914 29.3965 76.541 29.2207 77.3262 28.8691C78.123 28.5059 78.8086 27.9609 79.3828 27.2344L81.8438 29.9062C81.4453 30.4805 80.9004 31.0312 80.209 31.5586C79.5293 32.0859 78.709 32.5195 77.748 32.8594C76.7871 33.1875 75.6914 33.3516 74.4609 33.3516ZM94.4648 13.9805V17.5664H83.3906V13.9805H94.4648ZM86.1328 9.28711H91.1953V27.2695C91.1953 27.8203 91.2656 28.2422 91.4062 28.5352C91.5586 28.8281 91.7812 29.0332 92.0742 29.1504C92.3672 29.2559 92.7363 29.3086 93.1816 29.3086C93.498 29.3086 93.7793 29.2969 94.0254 29.2734C94.2832 29.2383 94.5 29.2031 94.6758 29.168L94.6934 32.8945C94.2598 33.0352 93.791 33.1465 93.2871 33.2285C92.7832 33.3105 92.2266 33.3516 91.6172 33.3516C90.5039 33.3516 89.5312 33.1699 88.6992 32.8066C87.8789 32.4316 87.2461 31.834 86.8008 31.0137C86.3555 30.1934 86.1328 29.1152 86.1328 27.7793V9.28711Z" fill="#5D5FEF"/>
<path d="M108.316 12.8C108.316 8.31958 108.316 6.07937 109.188 4.36808C109.955 2.86278 111.179 1.63893 112.684 0.871948C114.395 0 116.635 0 121.116 0H150.178C154.659 0 156.899 0 158.61 0.871948C160.115 1.63893 161.339 2.86278 162.106 4.36808C162.978 6.07937 162.978 8.31958 162.978 12.8V27.2C162.978 31.6804 162.978 33.9206 162.106 35.6319C161.339 37.1372 160.115 38.3611 158.61 39.1281C156.899 40 154.659 40 150.178 40H121.116C116.635 40 114.395 40 112.684 39.1281C111.179 38.3611 109.955 37.1372 109.188 35.6319C108.316 33.9206 108.316 31.6804 108.316 27.2V12.8Z" fill="#5D5FEF"/>
<path d="M114.667 25.3711C114.667 24.8711 114.839 24.4531 115.182 24.1172C115.534 23.7812 115.999 23.6133 116.577 23.6133C117.155 23.6133 117.616 23.7812 117.96 24.1172C118.311 24.4531 118.487 24.8711 118.487 25.3711C118.487 25.8711 118.311 26.2891 117.96 26.625C117.616 26.9609 117.155 27.1289 116.577 27.1289C115.999 27.1289 115.534 26.9609 115.182 26.625C114.839 26.2891 114.667 25.8711 114.667 25.3711ZM124.768 17.0273V27H121.393V14.3203H124.557L124.768 17.0273ZM124.276 20.2148H123.362C123.362 19.2773 123.483 18.4336 123.725 17.6836C123.968 16.9258 124.307 16.2812 124.745 15.75C125.182 15.2109 125.702 14.8008 126.303 14.5195C126.913 14.2305 127.593 14.0859 128.343 14.0859C128.936 14.0859 129.479 14.1719 129.971 14.3438C130.464 14.5156 130.885 14.7891 131.237 15.1641C131.596 15.5391 131.87 16.0352 132.057 16.6523C132.253 17.2695 132.35 18.0234 132.35 18.9141V27H128.952V18.9023C128.952 18.3398 128.874 17.9023 128.718 17.5898C128.561 17.2773 128.331 17.0586 128.026 16.9336C127.729 16.8008 127.362 16.7344 126.925 16.7344C126.471 16.7344 126.077 16.8242 125.741 17.0039C125.413 17.1836 125.139 17.4336 124.921 17.7539C124.71 18.0664 124.55 18.4336 124.44 18.8555C124.331 19.2773 124.276 19.7305 124.276 20.2148ZM140.753 27.2344C139.768 27.2344 138.885 27.0781 138.104 26.7656C137.323 26.4453 136.659 26.0039 136.112 25.4414C135.573 24.8789 135.159 24.2266 134.87 23.4844C134.581 22.7344 134.436 21.9375 134.436 21.0938V20.625C134.436 19.6641 134.573 18.7852 134.846 17.9883C135.12 17.1914 135.51 16.5 136.018 15.9141C136.534 15.3281 137.159 14.8789 137.893 14.5664C138.628 14.2461 139.456 14.0859 140.378 14.0859C141.276 14.0859 142.073 14.2344 142.768 14.5312C143.464 14.8281 144.046 15.25 144.514 15.7969C144.991 16.3438 145.35 17 145.593 17.7656C145.835 18.5234 145.956 19.3672 145.956 20.2969V21.7031H135.878V19.4531H142.639V19.1953C142.639 18.7266 142.553 18.3086 142.382 17.9414C142.218 17.5664 141.968 17.2695 141.632 17.0508C141.296 16.832 140.866 16.7227 140.343 16.7227C139.897 16.7227 139.514 16.8203 139.194 17.0156C138.874 17.2109 138.612 17.4844 138.409 17.8359C138.214 18.1875 138.065 18.6016 137.964 19.0781C137.87 19.5469 137.823 20.0625 137.823 20.625V21.0938C137.823 21.6016 137.893 22.0703 138.034 22.5C138.182 22.9297 138.389 23.3008 138.655 23.6133C138.928 23.9258 139.257 24.168 139.639 24.3398C140.03 24.5117 140.471 24.5977 140.964 24.5977C141.573 24.5977 142.139 24.4805 142.663 24.2461C143.194 24.0039 143.651 23.6406 144.034 23.1562L145.675 24.9375C145.409 25.3203 145.046 25.6875 144.585 26.0391C144.132 26.3906 143.585 26.6797 142.944 26.9062C142.303 27.125 141.573 27.2344 140.753 27.2344ZM154.089 14.3203V16.7109H146.706V14.3203H154.089ZM148.534 11.1914H151.909V23.1797C151.909 23.5469 151.956 23.8281 152.05 24.0234C152.151 24.2188 152.3 24.3555 152.495 24.4336C152.69 24.5039 152.936 24.5391 153.233 24.5391C153.444 24.5391 153.632 24.5312 153.796 24.5156C153.968 24.4922 154.112 24.4688 154.229 24.4453L154.241 26.9297C153.952 27.0234 153.639 27.0977 153.303 27.1523C152.968 27.207 152.596 27.2344 152.19 27.2344C151.448 27.2344 150.8 27.1133 150.245 26.8711C149.698 26.6211 149.276 26.2227 148.979 25.6758C148.682 25.1289 148.534 24.4102 148.534 23.5195V11.1914Z" fill="white"/>
</svg>
